<?xml version="1.0" encoding="UTF-8"?>
<svg width="52px" height="26px" viewBox="0 0 52 26" version="1.1" xmlns="http://www.w3.org/2000/svg" xmlns:xlink="http://www.w3.org/1999/xlink">
    <!-- Generator: Sketch 60 (88103) - https://sketch.com -->
    <title>ysi_negative</title>
    <desc>Created with Sketch.</desc>
    <g id="Leonnidas_MOBILE_Resultados-móvil" stroke="none" stroke-width="1" fill="none" fill-rule="evenodd">
        <g id="1.Resultados_ayuda-whatsapp" transform="translate(-16.000000, -18.000000)">
            <g id="Group-14" transform="translate(16.000000, 0.000000)">
                <g id="ysi_logo" transform="translate(0.000000, 18.000000)">
                    <g id="ysi/negative">
                        <g id="Group-3" transform="translate(0.000000, 2.587065)" fill="#1E1E1E">
                            <path d="M14.3810509,2.02653539 L14.3810509,9.79899567 L14.3810509,14.7688137 C14.3810509,19.4584025 10.7342553,23.1334531 6.15836066,23.1334531 C4.91984906,23.1334531 3.64688173,22.7834733 2.61476002,22.258416 C1.65137751,21.8383351 1.30733694,20.7535205 1.72028899,19.773507 C2.16735222,18.9335205 3.3372969,18.5486654 4.16285644,19.0036216 C4.81665412,19.3185508 5.47027952,19.4934531 6.15836066,19.4934531 C8.18832062,19.4584025 9.90852347,18.1285845 10.4589539,16.3087597 C9.49557142,16.8686923 8.3259713,17.1487463 7.19048237,17.1487463 C3.23392968,17.1487463 -8.61393515e-05,13.8238507 -8.61393515e-05,9.79899567 L-8.61393515e-05,4.6386779 C-8.61393515e-05,3.58873857 0.860101425,2.7838026 1.78902819,2.7838026 C2.85560564,2.7838026 3.61242599,3.58873857 3.61242599,4.6386779 L3.61242599,9.79899567 C3.61242599,11.8287732 5.22943389,13.3687193 7.19048237,13.3687193 C9.15170313,13.3687193 10.7342553,11.8287732 10.7342553,9.79899567 L10.7342553,2.02653539 C10.7342553,0.976596052 11.4910756,0.171660087 12.5231973,0.171660087 C13.5210356,0.171660087 14.3810509,0.976596052 14.3810509,2.02653539" id="Fill-1"></path>
                        </g>
                        <path d="M16.1783296,14.5936177 C16.7877505,13.7864922 17.9726389,13.6856448 18.7173513,14.3244605 C19.5975293,15.0644697 21.1209075,15.8380369 22.4412614,15.8043058 C23.3553928,15.8043058 24.2016173,15.5017635 24.7433055,15.1654901 C25.2172608,14.7619274 25.3525523,14.4254809 25.3525523,14.1564968 C25.3525523,13.9881871 25.3187729,13.9208978 25.2510401,13.8200504 C25.2172608,13.7192029 25.0817952,13.5846244 24.8110382,13.4164877 C24.3370829,13.0802142 23.3214394,12.7102097 22.1027716,12.4747837 L22.0688182,12.4747837 C21.0193953,12.2730888 20.0037518,12.0039317 19.123748,11.6003689 C18.2096166,11.1630751 17.3971715,10.5578175 16.7877505,9.64967167 C16.4153073,9.04441409 16.2122831,8.30457794 16.2122831,7.53083768 C16.2122831,5.9838761 17.092461,4.67216754 18.2096166,3.83148396 C19.394505,3.02418554 20.8163711,2.58706468 22.3735286,2.58706468 C24.7095261,2.58706468 26.3683699,3.69690539 27.4515721,4.43674154 C28.2641913,4.97488282 28.5009949,6.08472353 27.9932602,6.9255801 C27.4515721,7.73270553 26.3344164,7.96813153 25.4880178,7.39643209 C24.4048157,6.6901541 23.4569049,6.15201282 22.3735286,6.15201282 C21.52713,6.15201282 20.7824177,6.42099697 20.3424158,6.75744338 C19.9022397,7.05998568 19.8007276,7.36270096 19.8007276,7.53083768 C19.8007276,7.66541625 19.8007276,7.69914738 19.8682863,7.79999481 C19.9022397,7.86728409 20.0037518,8.00186266 20.2409036,8.13626824 C20.6809055,8.43898353 21.5610835,8.74169881 22.7120184,8.94339368 L22.7459719,8.97712481 L22.7797512,8.97712481 C23.897081,9.17881967 24.9463297,9.48153496 25.9281939,9.95238695 C26.8423253,10.3559497 27.7562825,10.9949384 28.33175,11.9368154 C28.7379726,12.6093622 28.9751244,13.3829295 28.9751244,14.1564968 C28.9751244,15.8043058 28.060993,17.1833036 26.8423253,18.0577184 C25.6234834,18.8985749 24.1001052,19.4029851 22.4412614,19.4029851 C19.8007276,19.3692539 17.7694406,18.1585658 16.4153073,17.0824562 C15.6705949,16.4770257 15.5689087,15.3334538 16.1783296,14.5936177" id="Fill-4" fill="#1E1E1E"></path>
                        <path d="M37.3830009,19.4029851 C36.1684639,19.4029851 35.1840796,18.4184334 35.1840796,17.2040638 C35.1840796,15.9895268 36.1684639,15.0049751 37.3830009,15.0049751 C38.5975379,15.0049751 39.5820896,15.9895268 39.5820896,17.2040638 C39.5820896,18.4184334 38.5975379,19.4029851 37.3830009,19.4029851 Z" id="Fill-6" fill="#9F0E59"></path>
                        <path d="M31.5425275,5.17412935 C30.4781198,5.17412935 29.4925373,6.05245806 29.4925373,7.1983376 L29.4925373,10.5466194 L29.4925373,12.624511 L29.4925373,17.3786037 C29.4925373,18.5244832 30.3599715,19.4029851 31.5820294,19.4029851 C32.646437,19.4029851 33.6318408,18.5244832 33.6318408,17.3786037 L33.6318408,12.624511 L33.6318408,10.5466194 L33.6318408,7.1983376 C33.6318408,6.05245806 32.7647641,5.17412935 31.5425275,5.17412935" id="Fill-8" fill="#1E1E1E"></path>
                        <g id="Group-12" transform="translate(29.492537, 0.000000)" fill="#9F0E59">
                            <path d="M4.12173993,2.08398654 C4.12173993,3.19027453 3.20107283,4.08696593 2.06537697,4.08696593 C0.929509088,4.08696593 0.0088419823,3.19027453 0.0088419823,2.08398654 C0.0088419823,0.977866098 0.929509088,0.0810071547 2.06537697,0.0810071547 C3.20107283,0.0810071547 4.12173993,0.977866098 4.12173993,2.08398654" id="Fill-10"></path>
                        </g>
                        <path d="M43.8506626,19.4029851 C42.6361256,19.4029851 41.6517413,18.4184334 41.6517413,17.2040638 C41.6517413,15.9895268 42.6361256,15.0049751 43.8506626,15.0049751 C45.0651996,15.0049751 46.0497512,15.9895268 46.0497512,17.2040638 C46.0497512,18.4184334 45.0651996,19.4029851 43.8506626,19.4029851 Z" id="Fill-13" fill="#D30050"></path>
                        <path d="M52,17.2040638 C52,18.4184334 51.0154484,19.4029851 49.8009113,19.4029851 C48.5863743,19.4029851 47.60199,18.4184334 47.60199,17.2040638 C47.60199,15.9895268 48.5863743,15.0049751 49.8009113,15.0049751 C51.0154484,15.0049751 52,15.9895268 52,17.2040638" id="Fill-15" fill="#E3286E"></path>
                    </g>
                </g>
            </g>
        </g>
    </g>
</svg>